<svg width="626" height="232" viewBox="0 0 626 232" fill="none" xmlns="http://www.w3.org/2000/svg">
<path d="M154.215 136.216C154.215 162.716 164.241 192.147 183.215 210.216C204.215 230.216 218.215 230.216 239.715 230.216C260.215 230.216 272.106 230 291.498 209.5C303.055 197.283 317.524 173.5 318.498 136C318.823 123.5 312.742 89.3022 302.499 71.4999C300.481 67.9943 298.446 64.8752 296 61.7077C294.85 61.7275 293.718 61.7571 292.611 61.786C289.137 61.8767 285.917 61.9607 283.214 61.7163C277.624 61.2106 273.392 59.6488 268.727 57.927C262.203 55.5196 254.833 52.7993 241.714 52.2163C226.895 51.5576 215.715 54.2163 203.715 59.2163C191.715 64.2163 181.215 72.7163 175.215 79.7163C170.363 85.3764 165.203 94.4266 161.715 102.716C157.095 113.695 154.215 125.71 154.215 136.216Z" fill="white"/>
<path d="M427.5 68.9999V149.5V230H458.001H522V219.5V200.5H458.001V192.5V168H522V136H458.001V129V102.5H522V68.9999H427.5Z" fill="white"/>
<path d="M210.214 46.2164L144.716 1.2164L157.537 22.1349L210.214 46.2164Z" fill="#C659D0"/>
<path d="M122.5 6.00001L139.5 21.5C139.5 21.5 151.399 32.9917 158.885 40.2164C162.529 40.2164 164.355 40 167.999 40L157.022 21.7819L122.5 6.00001Z" fill="#C240CE" fill-opacity="0.84"/>
<path d="M157.022 21.7819L167.999 40C164.355 40 162.529 40.2164 158.885 40.2164C168.192 49.1985 182.716 63.2164 182.716 63.2164L157.537 22.1349L157.022 21.7819Z" fill="#862A8E"/>
<path d="M369.5 217L352.5 230H378.5L369.5 217Z" fill="#8F8585"/>
<path d="M369.5 217L378.5 230L427.5 68.9999H410L369.5 196V206.5V217Z" fill="white"/>
<path d="M427.5 68.9999L378.5 230H403L427.5 149.5V68.9999Z" fill="#8F8585"/>
<path d="M403 230H427.5V149.5L403 230Z" fill="black"/>
<path d="M427.5 68.9999H522V61.5H427.5L410 68.9999H427.5Z" fill="white"/>
<path d="M458.001 200.5H522L516 192.5H458.001V200.5Z" fill="#8F8586"/>
<path d="M458.001 136H522L516 129H458.001V136Z" fill="#8F8586"/>
<path d="M553.5 143.5L528.5 219.5L544.5 230L576.778 166.009L553.5 143.5Z" fill="white"/>
<path d="M578.278 118L602 143.5L624.5 68.9999H602L578.278 118Z" fill="white"/>
<path d="M604.5 230.009L620.5 219.509L602 143.5L576.778 166.009L581.5 178.009L604.5 230.009Z" fill="white"/>
<path d="M554.5 68.9999H531.5L531.943 70.5L553.5 143.5L578.278 118L554.5 68.9999Z" fill="white"/>
<path d="M553.5 143.5L576.778 166.009L602 143.5L578.278 118L553.5 143.5Z" fill="#9D9D9D"/>
<path d="M528.5 219.5L553.5 143.5L531.943 70.5L544.5 143.5L528.5 219.5Z" fill="#8F8586"/>
<path d="M624.5 68.9999L602 143.5L620.5 219.509L611.5 143.5L624.5 68.9999Z" fill="#8F8586"/>
<path d="M544.5 230L559 230.009L574.75 198.509L586.5 230.006L604.5 230.009L581.5 178.009L576.778 166.009L544.5 230Z" fill="#8F8586"/>
<path d="M352.5 165.5V230L369.5 217V206.5V196C369.662 173.092 369.994 134.454 369 95C368.791 86.74 366 76.5 360 72.5C353.5 68.5 342.026 66.0442 334.5 64.1059L332 63.5583L329.5 63.1435C336.5 66.5 344.8 74.5 348 78.5L349 160.5L352.5 165.5Z" fill="white"/>
<path d="M318.498 136C317.524 173.5 303.055 197.283 291.498 209.5C272.106 230 260.215 230.216 239.715 230.216L329.5 230V63.1435C318.534 61.5316 301.656 61.6101 296 61.7077C298.446 64.8752 300.481 67.9943 302.499 71.4999C312.742 89.3022 318.823 123.5 318.498 136Z" fill="black"/>
<path d="M352.5 230V165.5L349 160.5L348 78.5C344.8 74.5 336.5 66.5 329.5 63.1435V230H352.5Z" fill="#8F8586"/>
<path d="M522 219.5V230H544.5L528.5 219.5H522Z" fill="black"/>
<path d="M574.75 198.509L559 230.009L586.5 230.006L574.75 198.509Z" fill="black"/>
<path fill-rule="evenodd" clip-rule="evenodd" d="M154.215 136.216C154.215 162.716 164.241 192.147 183.215 210.216C204.215 230.216 218.215 230.216 239.715 230.216L147.216 230.701V217.701V194.201L89.5 139L88.1672 137.701L137.216 79.7163V59.7004V40.7005L158.885 40.2164L182.716 63.2164L157.537 22.1349L210.214 46.2164L144.716 1.2164C157.46 1.2164 167.215 6.98735 177.293 12.9491C186.986 18.6835 196.978 24.5944 210.214 25.7164C234.129 27.7435 273.376 32.4122 296 61.7077C294.85 61.7275 293.718 61.7571 292.611 61.786C289.137 61.8767 285.917 61.9607 283.214 61.7163C277.624 61.2106 273.392 59.6488 268.727 57.927C262.203 55.5196 254.833 52.7993 241.714 52.2163C226.895 51.5576 215.715 54.2163 203.715 59.2163C191.715 64.2163 181.215 72.7163 175.215 79.7163C170.363 85.3764 165.203 94.4266 161.715 102.716C157.095 113.695 154.215 125.71 154.215 136.216Z" fill="#8F8585"/>
<path fill-rule="evenodd" clip-rule="evenodd" d="M11.9998 171.484C5.08147 160.242 0.499939 147.484 0.5 127.484C0.500061 107.484 5.87471 90.4839 11.9998 79.984C15.4391 74.0881 22 66.4841 29.5 59.484C34.2007 54.2484 42.519 48.741 48 46.4841C56.7875 42.8657 65.4998 40.2164 83.9998 40.2164L137.216 40.7005V59.7004L89.0832 113.757C87.4164 112.305 82.4023 109.954 77.7794 110.637C72.588 111.405 70.4093 113.215 68.8268 114.662C66.9817 116.349 63.1296 120.969 63.514 127.277C63.899 133.596 67.1227 136.768 68.6738 138.293C68.7027 138.322 68.7311 138.35 68.7589 138.377C69.7199 139.324 73.5292 142.017 77.6437 142.401C81.7583 142.786 85.5 142 89.5 139L147.216 194.201V217.701V230.701L140.998 230.484C140.505 230.484 139.916 230.485 139.242 230.486C128.305 230.505 94.9538 230.562 83.9998 226.984C71.4037 222.87 51.0002 212.984 41.9998 205.484C41.5721 205.128 41.1445 204.773 40.7165 204.417C32.1373 197.291 23.4296 190.058 11.9998 171.484Z" fill="white"/>
<path d="M137.216 79.7163V59.7004L89.0832 113.757L77.4998 127.484L88.1672 137.701L137.216 79.7163Z" fill="#9D9D9D"/>
<path d="M88.1672 137.701L77.4998 127.484L89.0832 113.757C87.4164 112.305 82.4023 109.954 77.7794 110.637C72.588 111.405 70.4093 113.215 68.8268 114.662C66.9817 116.349 63.1296 120.969 63.514 127.277C63.899 133.596 67.1227 136.768 68.6738 138.293L68.7589 138.377C69.7199 139.324 73.5292 142.017 77.6437 142.401C81.7583 142.786 85.5 142 89.5 139L88.1672 137.701Z" fill="black"/>
<path d="M144.716 1.2164L210.214 46.2164L157.537 22.1349M144.716 1.2164L157.022 21.7819M144.716 1.2164L157.537 22.1349M144.716 1.2164C157.46 1.2164 167.215 6.98735 177.293 12.9491C186.986 18.6835 196.978 24.5944 210.214 25.7164C234.129 27.7435 273.376 32.4122 296 61.7077M369.5 217L352.5 230M369.5 217L378.5 230M369.5 217V206.5V196M427.5 68.9999H522M427.5 68.9999L378.5 230M427.5 68.9999H410M427.5 68.9999V149.5M427.5 230H458.001H522M427.5 230V149.5M427.5 230H403M522 230H403M522 230V219.5M522 230H544.5M239.715 230.216C260.215 230.216 272.106 230 291.498 209.5C303.055 197.283 317.524 173.5 318.498 136C318.823 123.5 312.742 89.3022 302.499 71.4999C300.481 67.9943 298.446 64.8752 296 61.7077M239.715 230.216C218.215 230.216 204.215 230.216 183.215 210.216C164.241 192.147 154.215 162.716 154.215 136.216C154.215 125.71 157.095 113.695 161.715 102.716C165.203 94.4266 170.363 85.3764 175.215 79.7163C181.215 72.7163 191.715 64.2163 203.715 59.2163C215.715 54.2163 226.895 51.5576 241.714 52.2163C254.833 52.7993 262.203 55.5196 268.727 57.927C273.392 59.6488 277.624 61.2106 283.214 61.7163C285.917 61.9607 289.137 61.8767 292.611 61.786C293.718 61.7571 294.85 61.7275 296 61.7077M239.715 230.216L147.216 230.701M239.715 230.216L329.5 230M182.716 63.2164C182.716 63.2164 168.192 49.1985 158.885 40.2164M182.716 63.2164L157.537 22.1349M182.716 63.2164L158.885 40.2164M137.216 40.7005L83.9998 40.2164C65.4998 40.2164 56.7875 42.8657 48 46.4841C42.519 48.741 34.2007 54.2484 29.5 59.484C22 66.4841 15.4391 74.0881 11.9998 79.984C5.87471 90.4839 0.500061 107.484 0.5 127.484C0.499939 147.484 5.08147 160.242 11.9998 171.484C23.4296 190.058 32.1373 197.291 40.7165 204.417C41.1445 204.773 41.5721 205.128 41.9998 205.484C51.0002 212.984 71.4037 222.87 83.9998 226.984C94.9538 230.562 128.305 230.505 139.242 230.486C139.916 230.485 140.505 230.484 140.998 230.484L147.216 230.701M137.216 40.7005V59.7004M137.216 40.7005C137.216 40.7005 150.423 40.2164 158.885 40.2164M137.216 40.7005L158.885 40.2164M137.216 59.7004V79.7163L88.1672 137.701M137.216 59.7004L89.0832 113.757M147.216 217.701V230.701M147.216 217.701L93.4997 166M147.216 217.701V194.201L89.5 139M147.216 230.701L329.5 230M296 61.7077C301.656 61.6101 318.534 61.5316 329.5 63.1435M522 68.9999V102.5H458.001V129M522 68.9999V61.5H427.5L410 68.9999M522 136H458.001V129M522 136V168H458.001V192.5M522 136L516 129H458.001M522 200.5H458.001V192.5M522 200.5L516 192.5H458.001M522 200.5V219.5M157.022 21.7819L167.999 40C164.355 40 162.529 40.2164 158.885 40.2164M157.022 21.7819L122.5 6.00001L139.5 21.5C139.5 21.5 151.399 32.9917 158.885 40.2164M157.022 21.7819L157.537 22.1349M334.5 64.1059C342.026 66.0442 353.5 68.5 360 72.5C366 76.5 368.791 86.74 369 95C369.994 134.454 369.662 173.092 369.5 196M334.5 64.1059C333.071 63.7379 331.375 63.4192 329.5 63.1435M334.5 64.1059L332 63.5583L329.5 63.1435M352.5 230V165.5L349 160.5L348 78.5C344.8 74.5 336.5 66.5 329.5 63.1435M352.5 230H378.5M352.5 230H329.5M378.5 230H403M369.5 196L410 68.9999M403 230L427.5 149.5M329.5 63.1435V230M522 219.5H528.5M604.5 230.009L620.5 219.509M604.5 230.009L581.5 178.009L576.778 166.009M604.5 230.009L586.5 230.006M620.5 219.509L602 143.5M620.5 219.509L611.5 143.5L624.5 68.9999M544.5 230L528.5 219.5M544.5 230L559 230.009M544.5 230L576.778 166.009M624.5 68.9999H602L578.278 118M624.5 68.9999L602 143.5M528.5 219.5L553.5 143.5M528.5 219.5L544.5 143.5L531.943 70.5M559 230.009L574.75 198.509M559 230.009L586.5 230.006M576.778 166.009L553.5 143.5M576.778 166.009L602 143.5M553.5 143.5L578.278 118M553.5 143.5L531.943 70.5M578.278 118L602 143.5M578.278 118L554.5 68.9999H531.5L531.943 70.5M578.5 191.009L574.75 198.509M574.75 198.509L586.5 230.006M88.1672 137.701L77.4998 127.484L89.0832 113.757M88.1672 137.701L89.5 139M89.0832 113.757C87.4164 112.305 82.4023 109.954 77.7794 110.637C72.588 111.405 70.4093 113.215 68.8268 114.662C66.9817 116.349 63.1296 120.969 63.514 127.277C63.899 133.596 67.1227 136.768 68.6738 138.293M68.7589 138.377C69.7199 139.324 73.5292 142.017 77.6437 142.401C81.7583 142.786 85.5 142 89.5 139M68.7589 138.377C68.7311 138.35 68.7027 138.322 68.6738 138.293M68.7589 138.377L68.6738 138.293" stroke="#413E3E"/>
<circle cx="239.5" cy="139.5" r="28" fill="#8D8A8A" stroke="#131313"/>
<circle cx="230" cy="134" r="13.5" fill="#343232" stroke="black"/>
</svg>
